<svg id="svg" xmlns="http://www.w3.org/2000/svg" xmlns:xlink="http://www.w3.org/1999/xlink" width="400" height="400" viewBox="0, 0, 400,400"><g id="svgg"><path id="path0" d="M80.670 32.899 C 67.865 37.842,62.519 48.431,62.506 68.875 L 62.500 77.985 50.566 78.250 C 33.615 78.627,25.910 82.720,20.154 94.404 L 18.359 98.047 18.154 186.468 C 17.919 287.735,17.340 279.360,25.179 287.937 C 34.205 297.813,32.710 297.643,110.585 297.650 L 174.686 297.656 175.716 300.586 C 201.601 374.196,303.690 392.560,355.745 332.970 C 412.784 267.674,373.017 165.913,286.540 155.880 L 282.064 155.360 281.852 103.640 L 281.641 51.919 279.073 46.704 C 276.232 40.934,271.592 36.312,265.752 33.435 L 262.109 31.641 173.438 31.479 C 86.087 31.320,84.705 31.341,80.670 32.899 M256.046 44.459 C 260.150 45.253,264.009 47.833,266.477 51.434 L 268.359 54.181 268.571 104.679 L 268.783 155.176 259.711 156.532 C 244.445 158.814,227.718 165.225,215.654 173.418 L 211.023 176.562 164.460 176.562 L 117.898 176.562 115.980 178.480 C 113.619 180.842,113.426 184.978,115.555 187.609 L 117.048 189.453 156.673 189.844 L 196.298 190.234 193.356 193.750 C 185.111 203.605,176.778 218.988,173.323 230.733 L 171.562 236.719 129.500 236.719 C 79.660 236.719,79.743 236.736,76.644 225.391 C 75.441 220.988,75.446 59.456,76.648 55.078 C 77.828 50.785,83.253 45.653,87.652 44.669 C 91.805 43.741,251.304 43.541,256.046 44.459 M117.434 86.724 C 113.540 88.293,112.737 94.938,116.121 97.600 C 118.619 99.564,163.214 100.120,165.693 98.217 C 169.296 95.451,169.372 90.280,165.850 87.510 C 163.682 85.804,121.418 85.119,117.434 86.724 M62.500 157.383 C 62.500 235.550,62.278 233.526,71.823 242.454 C 79.828 249.942,77.149 249.579,126.172 249.828 L 169.141 250.048 168.894 260.375 C 168.743 266.653,169.073 273.384,169.735 277.539 L 170.823 284.375 108.263 284.371 C 35.297 284.366,37.462 284.618,32.610 275.541 L 30.859 272.266 30.859 187.439 L 30.859 102.612 33.203 98.828 C 37.022 92.661,40.279 91.406,52.467 91.406 L 62.500 91.406 62.500 157.383 M115.980 133.168 C 114.656 134.492,114.063 135.954,114.063 137.891 C 114.063 139.828,114.656 141.290,115.980 142.614 L 117.898 144.531 172.425 144.506 C 230.041 144.480,228.363 144.585,230.341 140.872 C 231.806 138.120,231.404 135.971,228.966 133.534 L 226.683 131.250 172.290 131.250 L 117.898 131.250 115.980 133.168 M291.105 169.959 C 360.378 182.039,392.206 262.613,349.889 318.772 C 304.721 378.714,209.636 362.284,186.431 290.528 C 165.166 224.774,223.057 158.093,291.105 169.959 M271.333 192.508 C 269.341 194.219,269.105 194.979,268.750 200.821 L 268.359 207.251 264.063 208.323 C 247.409 212.480,237.886 223.525,237.896 238.672 C 237.908 256.629,245.367 262.925,273.047 268.339 C 295.053 272.643,301.970 277.631,300.405 288.066 C 297.211 309.366,254.746 308.823,250.788 287.431 C 248.649 275.875,236.843 277.345,237.685 289.063 C 238.572 301.408,249.755 312.734,264.275 315.992 L 268.359 316.908 268.794 323.103 C 269.303 330.356,269.732 331.516,272.345 332.707 C 278.590 335.552,282.031 332.277,282.031 323.488 C 282.031 317.279,282.052 317.213,284.180 316.759 C 307.765 311.728,320.161 291.664,311.080 273.218 C 306.309 263.526,300.256 260.398,277.502 255.866 C 253.505 251.086,245.797 243.611,252.556 231.677 C 262.692 213.782,300.781 219.148,300.781 238.470 C 300.781 243.085,307.351 246.336,311.005 243.530 C 321.598 235.397,305.584 212.365,286.611 208.446 L 282.031 207.500 282.031 200.980 C 282.031 191.370,277.153 187.508,271.333 192.508 " stroke="none" fill="#000000" fill-rule="evenodd"></path></g></svg>