<svg id="svg" xmlns="http://www.w3.org/2000/svg" xmlns:xlink="http://www.w3.org/1999/xlink" width="400" height="400" viewBox="0, 0, 400,400"><g id="svgg"><path id="path0" d="M203.125 16.938 C 129.274 24.544,68.784 72.312,46.224 140.838 L 42.425 152.380 36.642 143.586 C 28.604 131.363,26.483 129.154,21.359 127.664 C 9.133 124.110,-0.463 131.832,0.142 144.736 L 0.444 151.172 19.827 180.469 C 44.122 217.189,43.730 216.768,53.516 216.699 C 59.631 216.656,59.131 216.942,92.575 194.318 C 125.210 172.241,125.391 172.069,125.391 162.961 C 125.391 152.559,118.643 145.642,108.633 145.784 C 103.368 145.858,102.098 146.490,87.234 156.429 C 80.857 160.693,75.487 164.028,75.299 163.841 C 74.562 163.104,80.756 146.002,84.839 137.500 C 119.395 65.541,205.412 33.857,278.127 66.304 C 372.415 108.378,395.898 230.669,323.881 304.577 C 260.353 369.774,154.371 362.753,100.183 289.759 C 91.077 277.493,81.261 274.820,72.337 282.176 C 63.496 289.463,63.853 298.567,73.483 311.402 C 140.402 400.597,273.314 408.246,350.251 327.330 C 430.107 243.346,412.164 104.568,313.565 43.577 C 281.199 23.556,238.610 13.283,203.125 16.938 M213.281 99.171 C 207.805 100.272,203.804 103.331,201.263 108.360 C 199.288 112.269,199.414 203.866,201.400 207.561 C 203.823 212.070,255.079 263.735,259.024 265.644 C 270.428 271.165,283.638 262.979,283.573 250.433 C 283.539 243.751,282.046 241.823,257.422 216.653 L 233.984 192.697 233.594 151.560 L 233.203 110.422 230.852 106.621 C 227.312 100.896,220.040 97.813,213.281 99.171 " stroke="none" fill="#000000" fill-rule="evenodd"></path></g></svg>