<svg id="svg" xmlns="http://www.w3.org/2000/svg" xmlns:xlink="http://www.w3.org/1999/xlink" width="400" height="400" viewBox="0, 0, 400,400"><g id="svgg"><path id="path0" d="M176.172 0.910 C 75.687 12.253,0.391 97.367,0.391 199.609 C 0.391 257.723,19.910 304.252,61.029 344.153 C 165.897 445.913,343.415 402.870,389.732 264.453 C 436.535 124.588,322.893 -15.652,176.172 0.910 M222.656 25.473 C 351.279 42.440,418.356 188.909,346.875 296.712 C 337.696 310.554,320.834 329.710,319.970 327.277 C 319.754 326.669,318.643 323.535,317.502 320.313 C 307.217 291.272,283.050 264.296,255.481 251.081 C 252.031 249.428,249.299 247.851,249.409 247.578 C 249.519 247.305,252.314 244.913,255.619 242.263 C 318.997 191.457,281.698 88.020,200.000 88.020 C 118.302 88.020,81.003 191.457,144.381 242.263 C 147.686 244.913,150.481 247.305,150.591 247.578 C 150.701 247.851,147.969 249.428,144.519 251.081 C 116.786 264.375,92.495 291.595,82.392 320.703 C 81.199 324.141,79.979 327.234,79.682 327.578 C 79.046 328.313,68.898 317.722,62.294 309.430 C 20.097 256.453,12.114 183.841,41.800 123.046 C 74.994 55.069,148.084 15.636,222.656 25.473 M211.064 112.824 C 261.655 122.575,280.491 183.016,244.214 219.191 C 208.463 254.841,148.393 236.668,138.168 187.109 C 129.319 144.224,168.234 104.568,211.064 112.824 M216.464 263.756 C 256.031 270.504,287.799 299.674,297.665 338.315 L 299.342 344.885 297.523 346.360 C 270.247 368.458,213.179 380.946,171.875 373.856 C 147.375 369.651,115.769 357.128,102.477 346.360 L 100.658 344.885 102.335 338.315 C 115.227 287.824,165.399 255.047,216.464 263.756 " stroke="none" fill="#000000" fill-rule="evenodd"></path></g></svg>