<svg id="svg" xmlns="http://www.w3.org/2000/svg" xmlns:xlink="http://www.w3.org/1999/xlink" width="400" height="400" viewBox="0, 0, 400,400"><g id="svgg"><path id="path0" d="M283.963 18.001 C 276.850 18.932,270.891 20.644,254.226 26.548 C 228.977 35.494,219.613 36.663,206.343 32.530 C 192.790 28.308,193.750 23.581,193.750 94.557 L 193.750 153.326 191.209 156.155 C 189.812 157.711,174.994 181.221,158.281 208.398 C 141.568 235.576,127.682 257.803,127.423 257.790 C 127.165 257.778,122.734 250.851,117.578 242.396 C 104.944 221.679,103.663 220.313,96.889 220.313 C 88.437 220.313,93.228 213.635,42.512 296.094 C 2.030 361.913,0.457 364.615,0.149 368.820 C -0.344 375.568,2.821 380.272,8.984 381.952 C 13.407 383.157,386.593 383.157,391.016 381.952 C 397.179 380.272,400.344 375.568,399.851 368.820 C 399.561 364.859,324.030 239.189,313.478 225.112 C 307.706 217.412,297.512 218.804,291.290 228.144 C 280.618 244.162,279.279 247.496,282.088 251.067 C 286.299 256.420,289.932 254.246,297.701 241.726 C 300.786 236.753,303.565 232.977,303.877 233.335 C 304.845 234.443,386.743 367.904,387.223 369.155 C 387.622 370.195,384.902 370.311,364.391 370.129 L 341.107 369.922 276.473 264.844 C 240.925 207.051,210.583 158.300,209.045 156.508 L 206.250 153.250 206.250 134.130 L 206.250 115.010 209.570 115.775 C 220.827 118.369,234.447 116.202,257.422 108.163 C 284.236 98.780,293.627 97.471,305.830 101.417 C 312.024 103.421,314.578 103.169,317.285 100.287 L 319.141 98.312 319.141 62.109 L 319.141 25.907 317.382 24.035 C 312.902 19.267,296.682 16.338,283.963 18.001 M303.320 31.408 L 307.031 32.327 307.031 60.352 L 307.031 88.377 303.320 87.743 C 289.991 85.467,278.127 87.405,254.688 95.689 C 231.332 103.943,221.404 105.573,210.216 102.991 L 206.250 102.075 206.250 74.028 L 206.250 45.981 210.742 46.623 C 224.527 48.594,234.524 46.911,257.813 38.699 C 283.419 29.670,291.234 28.418,303.320 31.408 M263.587 268.164 L 326.444 370.313 199.993 370.313 L 73.542 370.312 83.788 353.711 C 96.116 333.736,97.011 328.881,88.355 328.918 C 84.138 328.936,84.154 328.917,71.061 350.152 L 58.872 369.922 35.598 370.129 C 15.151 370.311,12.379 370.193,12.775 369.161 C 13.545 367.153,95.924 233.518,96.492 233.356 C 96.786 233.272,102.211 241.606,108.546 251.876 L 120.064 270.548 108.438 289.367 C 102.043 299.717,96.612 308.980,96.368 309.952 C 94.824 316.105,101.637 320.026,106.479 315.771 C 107.250 315.094,128.502 281.028,153.705 240.069 C 178.909 199.110,199.799 165.692,200.129 165.807 C 200.459 165.922,229.015 211.982,263.587 268.164 " stroke="none" fill="#000000" fill-rule="evenodd"></path></g></svg>