<svg id="svg" version="1.1" xmlns="http://www.w3.org/2000/svg" xmlns:xlink="http://www.w3.org/1999/xlink" width="400" height="400" viewBox="0, 0, 400,400"><g id="svgg"><path id="path0" d="M306.190 66.346 C 300.673 71.863,301.884 73.964,322.537 94.727 L 339.440 111.719 204.200 111.719 C 69.794 111.719,68.948 111.728,66.959 113.293 C 64.027 115.599,62.927 119.516,64.294 122.785 C 66.543 128.165,54.253 127.694,203.640 128.125 L 339.072 128.516 321.489 146.646 C 304.032 164.647,303.906 164.800,303.906 168.179 C 303.906 172.975,307.212 176.172,312.170 176.172 L 315.644 176.172 341.807 149.976 L 367.969 123.780 367.969 119.911 L 367.969 116.042 341.979 90.052 L 315.990 64.063 312.232 64.063 C 309.120 64.063,308.081 64.455,306.190 66.346 M84.766 224.528 C 83.477 225.128,71.084 237.005,57.227 250.923 L 32.031 276.228 32.031 280.078 L 32.031 283.929 57.227 309.234 C 71.858 323.930,83.515 335.013,85.028 335.668 C 90.505 338.038,96.094 333.915,96.094 327.504 L 96.094 323.969 78.358 306.125 L 60.622 288.281 195.831 288.281 C 330.859 288.281,331.042 288.279,333.071 286.683 C 336.955 283.628,337.338 277.369,333.842 274.085 L 331.905 272.266 196.434 271.875 L 60.963 271.484 78.528 253.354 C 95.518 235.817,96.094 235.120,96.094 232.077 C 96.094 226.106,90.042 222.073,84.766 224.528 " stroke="none" fill="#000000" fill-rule="evenodd"></path></g></svg>