<svg id="svg" version="1.1" xmlns="http://www.w3.org/2000/svg" xmlns:xlink="http://www.w3.org/1999/xlink" width="400" height="400" viewBox="0, 0, 400,400"><g id="svgg"><path id="path0" d="M61.133 163.707 C 44.142 168.282,36.907 180.308,37.680 202.687 C 38.494 226.242,48.758 236.506,72.313 237.320 C 100.232 238.285,112.500 226.892,112.500 200.000 C 112.500 179.208,105.091 167.981,88.521 163.665 C 82.774 162.168,66.757 162.193,61.133 163.707 M186.133 163.707 C 169.142 168.282,161.907 180.308,162.680 202.687 C 163.494 226.242,173.758 236.506,197.313 237.320 C 225.232 238.285,237.500 226.892,237.500 200.000 C 237.500 179.208,230.091 167.981,213.521 163.665 C 207.774 162.168,191.757 162.193,186.133 163.707 M311.133 163.707 C 294.142 168.282,286.907 180.308,287.680 202.687 C 288.494 226.242,298.758 236.506,322.313 237.320 C 350.232 238.285,362.500 226.892,362.500 200.000 C 362.500 179.208,355.091 167.981,338.521 163.665 C 332.774 162.168,316.757 162.193,311.133 163.707 " stroke="none" fill="#000000" fill-rule="evenodd"></path></g></svg>