<svg id="svg" version="1.1" xmlns="http://www.w3.org/2000/svg" xmlns:xlink="http://www.w3.org/1999/xlink" width="400" height="400" viewBox="0, 0, 400,400"><g id="svgg"><path id="path0" d="M189.795 22.381 C 180.477 23.747,173.635 27.394,136.070 51.014 C 126.070 57.301,115.593 63.836,112.787 65.534 C 107.182 68.926,103.486 71.285,63.930 96.719 C 27.975 119.838,20.615 127.360,14.473 147.264 C 12.445 153.835,12.332 159.925,12.580 249.267 L 12.844 344.282 17.272 352.967 C 23.240 364.669,35.212 376.803,46.921 383.016 L 55.718 387.683 183.624 388.020 C 334.430 388.418,342.487 388.126,354.902 381.824 C 366.933 375.718,376.457 365.930,382.784 353.169 L 387.683 343.289 388.025 258.862 C 388.572 123.698,392.151 134.482,333.882 95.721 C 305.845 77.070,265.777 51.186,251.839 42.721 C 234.955 32.466,231.088 30.202,224.960 26.984 C 215.242 21.882,203.595 20.357,189.795 22.381 M215.043 50.977 C 230.777 59.343,336.414 128.382,350.417 139.450 C 353.934 142.230,357.363 146.294,358.939 149.550 L 361.577 154.998 361.528 246.926 L 361.479 338.853 356.679 345.922 C 352.990 351.354,349.986 354.115,343.705 357.847 L 335.530 362.703 199.730 362.232 C 47.645 361.705,60.193 362.484,49.815 352.918 C 46.812 350.151,42.813 344.830,40.927 341.094 L 37.498 334.302 37.739 270.670 C 38.201 148.730,38.223 148.476,49.112 139.314 C 58.656 131.282,182.003 51.513,188.856 48.940 C 194.195 46.935,209.712 48.142,215.043 50.977 M142.287 302.933 C 136.219 309.594,135.821 314.400,140.770 321.232 L 144.296 326.100 199.922 326.100 L 255.548 326.100 259.152 321.727 C 263.755 316.143,263.914 310.886,259.665 304.755 L 256.572 300.293 200.631 300.293 L 144.690 300.293 142.287 302.933 " stroke="none" fill="#000000" fill-rule="evenodd"></path></g></svg>