<svg id="svg" xmlns="http://www.w3.org/2000/svg" xmlns:xlink="http://www.w3.org/1999/xlink" width="400" height="400" viewBox="0, 0, 400,400"><g id="svgg"><path id="path0" d="M24.407 64.058 C 18.206 67.839,18.756 54.619,18.756 200.000 C 18.756 345.381,18.206 332.161,24.407 335.942 C 28.421 338.389,371.579 338.389,375.593 335.942 C 383.301 331.242,383.301 318.758,375.593 314.058 C 373.074 312.522,371.313 312.506,208.398 312.503 L 43.750 312.500 43.747 191.602 C 43.744 72.342,43.723 70.669,42.192 68.157 C 38.815 62.619,30.072 60.604,24.407 64.058 M248.445 95.199 C 242.921 98.162,240.749 105.979,243.761 112.058 C 246.869 118.329,246.786 118.309,271.684 118.750 L 293.759 119.141 250.007 162.886 L 206.255 206.630 191.213 191.680 C 173.307 173.881,170.129 172.150,162.657 176.121 C 160.106 177.477,64.588 273.110,63.363 275.535 C 59.222 283.726,65.543 293.741,74.856 293.747 C 80.923 293.751,78.917 295.523,125.583 248.947 L 168.745 205.870 183.787 220.820 C 200.254 237.189,200.909 237.680,206.232 237.680 C 212.034 237.680,212.020 237.693,263.281 186.374 L 312.109 137.492 312.500 159.566 C 312.941 184.464,312.921 184.381,319.192 187.489 C 323.220 189.485,326.780 189.485,330.808 187.489 C 337.453 184.196,337.083 186.793,337.313 141.797 C 337.542 97.174,337.746 98.907,331.843 95.308 C 328.020 92.977,252.772 92.879,248.445 95.199 " stroke="none" fill="#000000" fill-rule="evenodd"></path></g></svg>