<svg id="svg" xmlns="http://www.w3.org/2000/svg" xmlns:xlink="http://www.w3.org/1999/xlink" width="400" height="400" viewBox="0, 0, 400,400"><g id="svgg"><path id="path0" d="M182.422 81.336 C 108.868 86.873,40.463 128.993,2.863 191.899 C -2.091 200.187,-0.812 204.228,12.724 223.047 C 104.840 351.113,295.160 351.113,387.276 223.047 C 400.812 204.228,402.091 200.187,397.137 191.899 C 353.008 118.071,269.009 74.817,182.422 81.336 M224.224 99.583 C 285.970 106.830,341.269 140.478,376.135 192.019 L 381.534 200.000 376.135 207.981 C 291.766 332.700,108.234 332.700,23.865 207.981 L 18.466 200.000 23.865 192.019 C 68.278 126.365,146.181 90.424,224.224 99.583 M185.156 126.125 C 96.948 144.700,109.934 274.530,200.000 274.530 C 288.362 274.530,303.597 150.652,218.162 126.853 C 211.982 125.132,191.970 124.690,185.156 126.125 M216.016 144.571 C 260.472 158.411,272.312 214.961,236.874 244.193 C 199.027 275.410,142.600 248.959,142.600 200.000 C 142.600 161.609,180.013 133.362,216.016 144.571 " stroke="none" fill="#000000" fill-rule="evenodd"></path></g></svg>