<svg id="svg" xmlns="http://www.w3.org/2000/svg" xmlns:xlink="http://www.w3.org/1999/xlink" width="400" height="400" viewBox="0, 0, 400,400"><g id="svgg"><path id="path0" d="M336.888 17.626 C 333.206 20.205,332.813 22.278,332.813 39.108 L 332.813 54.855 322.085 65.199 L 311.357 75.543 305.093 70.436 C 208.346 -8.444,59.935 44.323,35.171 166.406 C 9.415 293.378,129.726 400.358,252.494 359.648 C 363.113 322.968,403.210 185.234,329.564 94.907 L 324.457 88.643 334.801 77.915 L 345.145 67.188 360.892 67.188 C 380.245 67.188,383.594 65.946,383.594 58.772 C 383.594 51.057,381.246 50.000,364.114 50.000 L 350.000 50.000 350.000 35.886 C 350.000 27.700,349.662 21.141,349.196 20.269 C 347.321 16.766,340.276 15.253,336.888 17.626 M221.445 51.967 C 248.117 55.971,274.306 67.605,294.530 84.436 L 299.387 88.478 290.961 96.930 L 282.535 105.382 277.791 101.619 C 210.552 48.286,108.261 78.558,81.314 159.766 C 52.933 245.293,120.966 332.785,209.797 324.997 C 309.946 316.218,360.395 201.216,298.632 122.493 L 295.132 118.033 303.224 109.457 C 312.645 99.472,311.136 99.371,319.501 110.547 C 359.729 164.291,359.126 240.213,318.057 292.169 C 248.799 379.787,113.374 365.801,64.798 266.016 C 12.200 157.968,102.808 34.158,221.445 51.967 M221.484 94.394 C 237.986 97.935,270.952 114.212,269.327 118.015 C 269.225 118.256,265.385 122.057,260.794 126.462 L 252.448 134.473 248.318 131.632 C 191.026 92.222,114.273 133.664,116.632 202.734 C 119.133 276.000,207.488 310.960,259.034 259.080 C 287.958 229.967,291.802 185.748,268.368 151.682 L 265.527 147.552 273.538 139.206 C 277.943 134.615,281.744 130.775,281.985 130.673 C 284.221 129.717,298.346 154.453,302.220 166.106 C 329.936 249.486,250.229 329.746,166.645 302.624 C 103.809 282.234,73.934 210.042,103.941 151.103 C 125.722 108.323,175.187 84.458,221.484 94.394 M217.471 136.319 C 265.963 150.372,282.215 209.127,247.697 245.599 C 215.947 279.148,160.159 270.038,140.268 228.056 C 116.305 177.478,163.987 120.820,217.471 136.319 M191.406 162.109 L 191.406 166.406 186.289 166.406 C 175.603 166.406,175.000 167.533,175.000 187.500 C 175.000 209.284,174.363 208.594,194.492 208.594 L 207.813 208.594 207.813 212.500 L 207.813 216.406 191.406 216.406 L 175.000 216.406 175.000 225.000 L 175.000 233.594 183.203 233.594 L 191.406 233.594 191.406 237.891 L 191.406 242.188 200.000 242.188 L 208.594 242.188 208.594 237.891 L 208.594 233.594 213.711 233.594 C 224.397 233.594,225.000 232.467,225.000 212.500 C 225.000 190.716,225.637 191.406,205.508 191.406 L 192.188 191.406 192.188 187.500 L 192.188 183.594 208.594 183.594 L 225.000 183.594 225.000 175.000 L 225.000 166.406 216.797 166.406 L 208.594 166.406 208.594 162.109 L 208.594 157.813 200.000 157.813 L 191.406 157.813 191.406 162.109 " stroke="none" fill="#000000" fill-rule="evenodd"></path></g></svg>