<svg id="svg" xmlns="http://www.w3.org/2000/svg" xmlns:xlink="http://www.w3.org/1999/xlink" width="400" height="400" viewBox="0, 0, 400,400"><g id="svgg"><path id="path0" d="M174.893 1.539 C 80.863 22.271,45.883 133.721,110.151 207.813 C 128.103 228.508,137.423 251.000,137.508 273.828 C 137.530 279.556,139.762 283.936,143.738 286.051 C 148.092 288.368,253.206 288.287,257.761 285.964 C 262.158 283.721,263.782 279.687,264.377 269.531 C 265.738 246.312,273.908 227.598,291.320 207.813 C 354.536 135.981,322.758 27.105,231.407 2.540 C 220.903 -0.284,185.970 -0.903,174.893 1.539 M217.969 24.687 C 265.199 32.931,300.000 74.659,300.000 123.047 C 300.000 149.849,291.404 170.883,271.061 193.859 C 254.407 212.668,240.625 243.187,240.625 261.256 L 240.625 263.281 200.953 263.281 L 161.281 263.281 159.884 254.883 C 156.130 232.327,146.109 211.922,129.286 192.578 C 114.074 175.086,106.090 159.351,102.772 140.324 C 91.005 72.847,150.683 12.942,217.969 24.687 M145.483 302.081 C 136.962 306.280,137.096 319.271,145.703 323.437 C 150.818 325.914,250.832 325.871,255.956 323.391 C 264.259 319.372,264.407 306.505,256.199 302.318 C 251.951 300.150,149.842 299.932,145.483 302.081 M144.451 340.055 C 137.233 344.877,137.421 354.965,144.832 360.499 C 148.224 363.031,253.339 363.031,256.730 360.499 C 264.537 354.670,263.997 342.803,255.768 339.365 C 253.644 338.477,243.592 338.281,200.141 338.281 L 147.106 338.281 144.451 340.055 M162.650 377.363 C 159.900 379.039,157.066 384.184,157.066 387.500 C 157.066 390.816,159.900 395.961,162.650 397.637 C 166.584 400.036,234.718 400.101,238.580 397.710 C 245.866 393.198,245.866 381.802,238.580 377.290 C 234.718 374.899,166.584 374.964,162.650 377.363 " stroke="none" fill="#000000" fill-rule="evenodd"></path></g></svg>