<svg id="svg" version="1.1" xmlns="http://www.w3.org/2000/svg" xmlns:xlink="http://www.w3.org/1999/xlink" width="400" height="400" viewBox="0, 0, 400,400"><g id="svgg"><path id="path0" d="M225.188 1.558 C 217.710 6.118,217.451 18.426,224.732 23.200 C 226.687 24.482,229.732 24.645,258.352 25.000 L 289.821 25.391 252.137 59.877 C 231.411 78.844,212.113 96.511,209.253 99.136 L 204.053 103.910 179.175 84.146 C 148.278 59.600,150.295 61.043,146.071 60.470 C 139.986 59.646,139.161 60.317,81.573 112.903 C 14.020 174.589,16.001 172.682,14.888 177.099 C 12.174 187.879,23.733 196.971,33.327 191.602 C 34.670 190.850,60.112 167.951,89.864 140.716 C 119.616 113.481,144.409 91.157,144.959 91.107 C 145.509 91.057,157.504 100.190,171.613 111.403 C 200.483 134.347,199.373 133.594,204.323 133.594 C 210.207 133.594,210.758 133.142,260.938 87.160 L 308.984 43.133 309.375 74.887 C 309.744 104.847,309.854 106.790,311.328 109.293 C 316.286 117.711,328.790 117.755,333.502 109.372 C 335.138 106.461,335.156 105.882,335.156 57.824 C 335.156 3.644,335.353 5.689,329.785 1.905 L 326.981 0.000 277.358 0.003 C 229.219 0.006,227.658 0.052,225.188 1.558 M366.545 120.065 C 365.117 120.768,363.095 122.600,362.053 124.135 L 360.156 126.925 360.159 259.361 C 360.162 390.133,360.182 391.829,361.715 394.343 C 366.594 402.346,379.087 402.011,383.942 393.747 C 385.544 391.021,385.547 390.764,385.547 259.318 L 385.547 127.620 383.468 124.479 C 379.908 119.099,372.452 117.154,366.545 120.065 M158.284 177.552 C 151.831 181.252,152.343 171.699,152.347 288.269 C 152.350 390.196,152.374 391.836,153.902 394.343 C 158.782 402.346,171.275 402.011,176.130 393.747 C 177.727 391.029,177.734 390.513,177.734 287.891 L 177.734 184.766 175.898 181.812 C 172.316 176.050,164.290 174.109,158.284 177.552 M263.258 197.852 C 261.344 198.818,258.984 200.804,258.014 202.264 L 256.250 204.919 256.253 298.358 C 256.256 390.217,256.282 391.840,257.808 394.343 C 262.688 402.346,275.181 402.011,280.036 393.747 C 281.653 390.994,283.116 221.333,281.630 208.828 C 280.816 201.974,274.869 196.094,268.750 196.094 C 267.643 196.094,265.172 196.885,263.258 197.852 M54.094 260.933 C 48.070 264.607,48.443 260.062,48.443 329.688 C 48.443 390.288,48.481 391.859,49.996 394.343 C 54.875 402.346,67.369 402.011,72.223 393.747 C 74.744 389.456,74.744 269.919,72.223 265.628 C 68.656 259.555,60.022 257.319,54.094 260.933 " stroke="none" fill="#000000" fill-rule="evenodd"></path></g></svg>